<svg width="20" height="20" viewBox="0 0 20 20" fill="none" xmlns="http://www.w3.org/2000/svg">
<path fill-rule="evenodd" clip-rule="evenodd" d="M10 3.27487C10.4602 3.27487 10.8333 3.64796 10.8333 4.1082L10.8333 9.16742L15.8926 9.16742C16.3528 9.16742 16.7259 9.54052 16.7259 10.0008C16.7259 10.461 16.3528 10.8341 15.8926 10.8341L10.8333 10.8341L10.8333 15.8933C10.8333 16.3535 10.4602 16.7266 10 16.7266C9.53976 16.7266 9.16667 16.3535 9.16667 15.8933L9.16667 10.8341L4.10744 10.8341C3.64721 10.8341 3.27411 10.461 3.27411 10.0008C3.27411 9.54052 3.64721 9.16742 4.10744 9.16742L9.16667 9.16742L9.16667 4.1082C9.16667 3.64796 9.53976 3.27487 10 3.27487Z" fill="#989FA7"/>
</svg>
