<?xml version="1.0" standalone="no"?>
<!DOCTYPE svg PUBLIC "-//W3C//DTD SVG 20010904//EN"
 "http://www.w3.org/TR/2001/REC-SVG-20010904/DTD/svg10.dtd">
<svg version="1.0" xmlns="http://www.w3.org/2000/svg"
 width="24.000000pt" height="24.000000pt" viewBox="0 0 24.000000 24.000000"
 preserveAspectRatio="xMidYMid meet">

<g transform="translate(0.000000,24.000000) scale(0.100000,-0.100000)"
fill="#000000" stroke="none">
<path d="M110 158 c0 -71 0 -71 -20 -53 -33 30 -33 11 0 -20 l30 -29 30 29
c33 31 33 50 0 20 -20 -18 -20 -18 -20 53 0 41 -4 72 -10 72 -6 0 -10 -31 -10
-72z"/>
<path d="M4 45 l1 -40 115 0 115 0 1 40 c1 32 1 34 -3 8 l-4 -33 -109 0 -109
0 -4 33 c-4 26 -4 24 -3 -8z"/>
</g>
</svg>
