<svg width="40" height="40" viewBox="0 0 40 40" fill="none" xmlns="http://www.w3.org/2000/svg">
<path d="M28.5435 27.955L27.9541 28.5442C27.6287 28.8696 27.1011 28.8696 26.7756 28.5442L19.9992 21.7677L13.2227 28.5441C12.8974 28.8696 12.3697 28.8696 12.0443 28.5441L11.455 27.9548C11.1296 27.6295 11.1296 27.1018 11.455 26.7763L18.2315 20L11.455 13.2235C11.1296 12.8981 11.1296 12.3704 11.455 12.045L12.0443 11.4558C12.3697 11.1303 12.8974 11.1303 13.2227 11.4558L19.9992 18.2322L26.7756 11.4557C27.1011 11.1303 27.6287 11.1303 27.9541 11.4557L28.5435 12.045C28.8689 12.3704 28.8689 12.8981 28.5435 13.2235L21.767 20L28.5435 26.7763C28.8689 27.1018 28.8689 27.6295 28.5435 27.955Z" fill="black"/>
</svg>
