<svg width="32" height="30" viewBox="0 0 32 30" fill="none" xmlns="http://www.w3.org/2000/svg">
          <path d="M30.1776 8.33949C29.8623 7.14616 28.9309 6.20992 27.7473 5.89461C25.5983 5.3125 17.0024 5.3125 17.0024 5.3125C17.0024 5.3125 8.4017 5.3125 6.25759 5.88976C5.07395 6.20992 4.14257 7.14616 3.82726 8.33464C3.25 10.4982 3.25 14.9998 3.25 14.9998C3.25 14.9998 3.25 19.5015 3.82241 21.6602C4.13772 22.8535 5.0691 23.7897 6.25273 24.1051C8.39685 24.6823 16.9976 24.6823 16.9976 24.6823C16.9976 24.6823 25.5983 24.6823 27.7424 24.1051C28.926 23.7849 29.8574 22.8487 30.1727 21.6602C30.7451 19.5015 30.7451 14.9998 30.7451 14.9998C30.7451 14.9998 30.75 10.4982 30.1776 8.33949Z" fill="#78909C"></path>
          <path d="M14.1875 19.0892V10.9105L21.3766 14.9999L14.1875 19.0892Z" fill="#0F1A2A"></path>
        </svg>