<svg width="45" height="52" viewBox="0 0 45 52" fill="none" xmlns="http://www.w3.org/2000/svg">
<g clip-path="url(#clip0_246_3776)">
<mask id="mask0_246_3776" style="mask-type:luminance" maskUnits="userSpaceOnUse" x="0" y="0" width="52" height="52">
<path d="M0 0H51.9564V52H0V0Z" fill="white"/>
</mask>
<g mask="url(#mask0_246_3776)">
<path d="M5.14309 51.4346V44.6122H3.35109V50.453C3.16 50.5601 2.91378 50.627 2.63953 50.627C2.06578 50.627 1.77868 50.2632 1.77868 49.6852V44.6122H0V49.4827C0 51.2995 0.943544 52 2.58625 52C3.74845 52 4.61068 51.7709 5.14309 51.4346Z" fill="#233E99"/>
<path d="M11.3637 51.8655V46.7383C11.3637 45.2044 10.529 44.4772 8.7232 44.4772C7.60281 44.4772 6.76814 44.6924 6.17969 45.0155V51.8655H7.94412V45.8904C8.13614 45.7956 8.313 45.7567 8.68279 45.7567C9.31166 45.7567 9.57074 46.1047 9.57074 46.7383V51.8655" fill="#233E99"/>
<path d="M14.2686 43.1583C14.2686 42.6327 13.8295 42.2155 13.2961 42.2155C12.778 42.2155 12.3535 42.6327 12.3535 43.1583C12.3535 43.6685 12.778 44.1001 13.2961 44.1001C13.8295 44.1001 14.2686 43.6685 14.2686 43.1583Z" fill="#233E99"/>
<path d="M19.0341 51.4617L18.6657 50.2786C18.5013 50.4381 18.2688 50.5457 17.8848 50.5457C17.1732 50.5457 16.7364 49.6585 16.7364 48.1906C16.7364 46.7639 17.1181 45.8369 17.9137 45.8369C18.2822 45.8369 18.5288 45.9703 18.6657 46.1045L19.0204 45.0153C18.7475 44.7189 18.2822 44.4771 17.4893 44.4771C16.0937 44.4771 14.9453 45.7565 14.9453 48.2187C14.9453 50.6944 15.9839 52 17.4893 52C18.3235 52 18.7613 51.7582 19.0341 51.4617Z" fill="#233E99"/>
<path d="M24.8793 51.8655V46.764C24.8793 45.3517 24.1135 44.4899 22.7588 44.4899C22.2682 44.4899 21.8291 44.6124 21.4607 44.827V42.2158H19.6953V51.8655H21.4607V45.9447C21.7069 45.81 21.9393 45.7567 22.226 45.7567C22.7588 45.7567 23.0873 46.1187 23.0873 46.764V51.8655" fill="#233E99"/>
<path d="M30.7949 51.4617V47.1417C30.7949 45.15 29.7558 44.4771 28.3736 44.4771C27.2651 44.4771 26.5274 44.7862 26.1034 45.0153L26.4731 46.1596C26.8682 45.9572 27.4153 45.7827 28.0318 45.7827C28.6749 45.7827 29.0851 46.1045 29.0851 46.7905V47.0341C27.1153 47.289 25.7207 47.8689 25.7207 49.7259C25.7207 51.1653 26.6091 52 28.3736 52C29.5224 52 30.2616 51.798 30.7949 51.4617ZM29.0851 50.6944C28.9468 50.749 28.7016 50.815 28.4544 50.815C27.7562 50.815 27.3882 50.3983 27.3882 49.6585C27.3882 48.6082 27.9491 48.2313 29.0851 48.084" fill="#233E99"/>
<path d="M35.363 44.4899C33.6679 44.4094 32.7234 44.6246 32.0527 45.0155V51.8655H33.8176V45.8904C34.1599 45.7296 34.6257 45.7151 35.0345 45.9167" fill="#233E99"/>
<path d="M44.5715 51.8655V46.7383C44.5715 45.2975 43.7092 44.4772 42.4639 44.4772C41.4942 44.4772 40.9048 44.7597 40.4808 45.1768C40.1533 44.7864 39.5644 44.4772 38.4977 44.4772C37.3066 44.4772 36.5697 44.6924 35.9941 45.0155V51.8655H37.7604V45.8764C37.9635 45.7955 38.1412 45.7422 38.4839 45.7422C39.0857 45.7422 39.387 46.1598 39.387 46.7514V51.8655H41.179V46.0649C41.3848 45.8489 41.6311 45.7422 41.9595 45.7422C42.5052 45.7422 42.7923 46.1318 42.7923 46.7383V51.8655" fill="#233E99"/>
<path d="M14.2001 44.5875V51.8655H12.4219V44.6056" fill="#233E99"/>
<path d="M41.8308 19.2256C41.8308 29.8465 33.0825 38.4562 22.289 38.4562C11.4914 38.4562 2.74414 29.8465 2.74414 19.2256C2.74414 8.60866 11.4914 -7.62939e-06 22.289 -7.62939e-06C33.0825 -7.62939e-06 41.8308 8.60866 41.8308 19.2256ZM22.289 2.41469C12.8492 2.41469 5.19754 9.94159 5.19754 19.2256C5.19754 28.5136 12.8492 36.0405 22.289 36.0405C31.7257 36.0405 39.3794 28.5136 39.3794 19.2256C39.3794 9.94159 31.7257 2.41469 22.289 2.41469Z" fill="#233E99"/>
<path d="M22.3298 21.1777C18.9326 20.1058 16.439 18.3852 16.439 14.871C16.439 13.3344 17.432 11.4378 17.432 9.33459C17.432 6.43044 13.5785 5.77781 10.3824 9.30095C8.81644 11.0264 6.68164 14.6337 6.68164 19.2218C6.68164 26.0792 11.2005 31.0164 15.2218 32.9179C25.9903 38.0074 33.0218 24.5604 22.3298 21.1777Z" fill="#FCB034"/>
<path d="M31.6936 15.2814C33.0374 15.6215 34.0756 16.5134 35.0124 17.9522C36.8697 20.801 37.3049 25.4188 34.0183 29.2979C32.8183 30.7129 30.2885 32.4087 27.3476 32.5857C25.0791 32.7251 22.879 31.7027 21.7694 30.61C19.9914 28.8638 20.0758 24.9995 24.0027 24.7226C26.3174 24.5644 28.0029 23.0436 28.6321 21.9757C29.2532 20.9265 29.7769 18.7867 29.6864 17.0959C29.618 15.7936 30.3116 14.9353 31.6936 15.2814Z" fill="#F47B20"/>
</g>
</g>
<defs>
<clipPath id="clip0_246_3776">
<rect width="44.1509" height="52" fill="white" transform="translate(0 0.000244141)"/>
</clipPath>
</defs>
</svg>
