<svg width="145" height="24" viewBox="0 0 145 24" fill="none" xmlns="http://www.w3.org/2000/svg">
<g clip-path="url(#clip0_246_3843)">
<path d="M48.2102 12.0143C48.2102 19.4218 43.4195 24.0002 36.0471 24.0002C28.6792 24.0002 23.8892 19.4218 23.8892 12.0143C23.8892 4.60612 28.6799 0.000244141 36.0471 0.000244141C43.4195 0.000244141 48.2102 4.60612 48.2102 12.0143ZM31.1567 12.0143C31.1567 17.9924 32.6971 20.8229 36.0471 20.8229C39.3971 20.8229 40.9428 17.9924 40.9428 12.0143C40.9428 6.04075 39.3963 3.17301 36.0471 3.17301C32.6978 3.17301 31.1567 6.04075 31.1567 12.0143ZM0.0253906 9.40369V0.898599H22.2561V9.40369H19.1434C19.1434 5.98826 18.1393 3.84469 14.2895 3.84469V18.8132C14.2895 19.6469 14.7573 20.149 15.5918 20.149H17.6V23.0988H4.60997V20.1497H6.68965C7.52182 20.1497 7.99572 19.6477 7.99572 18.814V3.84469C4.14215 3.84469 3.13502 5.98902 3.13502 9.40369H0.0253906ZM58.8368 10.5858H61.7198C64.0672 10.5858 65.6403 9.31393 65.6403 7.23272C65.6403 5.15609 64.1342 3.84773 62.2553 3.84773H58.8368V10.5858ZM52.5362 5.18956C52.5362 4.34977 52.0661 3.84773 51.2309 3.84773H49.1497V0.898599H63.197C68.6936 0.898599 71.947 2.61011 71.947 7.20458C71.947 11.7945 68.6936 13.5387 62.5261 13.5387H58.8368V18.8345C58.8368 19.6697 59.3085 20.1725 60.146 20.1725H62.393V23.1255H49.1839V20.1725H51.2301C52.0661 20.1725 52.5362 19.6697 52.5362 18.8345V5.18956ZM101.129 13.0853H105.665L103.574 5.88405H103.507L101.129 13.0853ZM108.193 0.893275L113.472 17.6372C114.141 19.6789 114.609 20.1474 115.779 20.1474H116.601V23.0981H104.694V20.1482H105.698C106.704 20.1482 107.542 20.0151 107.542 19.6454C107.542 19.3137 107.508 18.9448 107.377 18.442L106.669 16.0307H100.159L99.7557 17.3725C99.386 18.5417 99.2537 19.0437 99.2537 19.513C99.2537 20.0493 100.424 20.1482 101.33 20.1482H102.299V23.0981H92.4563V20.1482H93.592C94.7672 20.1482 95.2373 19.6789 95.9044 17.638L101.499 0.892514L108.193 0.893275ZM137.519 16.2064H137.585V5.18195C137.585 4.34293 137.116 3.84012 136.278 3.84012H134.236V0.893275H144.553V3.84012H142.541C141.705 3.84012 141.239 4.34293 141.239 5.18195V23.1125H134.473L125.159 6.5892H125.092V18.8208C125.092 19.6576 125.561 20.1596 126.401 20.1596H128.442V23.1125H118.088V20.1588H120.134C120.968 20.1588 121.438 19.6568 121.438 18.8216V5.18271C121.438 4.34293 120.968 3.84012 120.133 3.84012H118.054V0.893275H128.847L137.519 16.2064ZM82.6915 10.5926H85.5737C87.9219 10.5926 89.4973 9.32153 89.4973 7.24033C89.4973 5.16369 87.9873 3.85534 86.11 3.85534H82.6915V10.5926ZM76.3894 5.1964C76.3894 4.35738 75.9193 3.85534 75.0856 3.85534H73.0044V0.905445H87.0532C92.5506 0.905445 95.801 2.61696 95.801 7.21143C95.801 11.8013 92.5506 13.5463 86.38 13.5463H82.6915V18.8414C82.6915 19.6766 83.1662 20.1801 83.9999 20.1801H86.2462V23.1331H73.0378V20.1801H75.0856C75.9193 20.1801 76.3894 19.6758 76.3894 18.8414V5.1964Z" fill="#0068B7"/>
</g>
<defs>
<clipPath id="clip0_246_3843">
<rect width="144.578" height="24" fill="white" transform="translate(0 0.000244141)"/>
</clipPath>
</defs>
</svg>
