<svg width="24" height="25" viewBox="0 0 24 25" fill="none" xmlns="http://www.w3.org/2000/svg">
<path d="M12 16.5L11.6464 16.8536L12 17.2071L12.3536 16.8536L12 16.5ZM12.5 4.5C12.5 4.22386 12.2761 4 12 4C11.7239 4 11.5 4.22386 11.5 4.5L12.5 4.5ZM5.64645 10.8536L11.6464 16.8536L12.3536 16.1464L6.35355 10.1464L5.64645 10.8536ZM12.3536 16.8536L18.3536 10.8536L17.6464 10.1464L11.6464 16.1464L12.3536 16.8536ZM12.5 16.5L12.5 4.5L11.5 4.5L11.5 16.5L12.5 16.5Z" fill="white"/>
<path d="M5 21.5H19" stroke="white"/>
</svg>
