<svg width="156" height="24" viewBox="0 0 156 24" fill="none" xmlns="http://www.w3.org/2000/svg">
<path d="M38.8594 6.90702H44.8807L45.1332 8.88471C45.5957 7.2843 48.6292 6.18896 50.479 6.18896C54.7722 6.18896 56.5003 8.84211 56.5003 13.4303V23.3675H49.8492V14.4831C49.8492 12.7153 49.5115 11.3675 47.7438 11.3675C46.1008 11.3675 45.2184 13.1352 45.2184 14.3979V23.3644H38.902V6.90398H38.8594V6.90702Z" fill="#001EAA"/>
<path d="M0 23.4526V0.0854492H11.1572C17.8083 0.0854492 20.8418 3.32582 20.8418 7.99924C20.8418 13.0104 18.0639 16.4181 11.1572 16.4181H7.40872V23.4069H0V23.4526ZM10.357 10.7802C12.1247 10.7802 14.0629 10.3999 14.0629 8.33697C14.0629 6.2315 12 5.76902 10.357 5.76902H7.40872V10.7802H10.357Z" fill="#001EAA"/>
<path d="M112.156 6.90702H118.22L118.43 8.88471C118.978 7.2843 122.008 6.18896 123.819 6.18896C128.029 6.18896 129.84 8.84211 129.84 13.4303V23.4496H123.189V14.4831C123.189 12.7153 122.808 11.3675 120.998 11.3675C119.398 11.3675 118.555 13.1352 118.555 14.3979V23.4496H112.156V6.90702Z" fill="#001EAA"/>
<path d="M81.5894 17.5166C81.5894 18.189 81.9272 19.1596 82.3044 19.4942C82.7669 19.832 83.3572 20.1667 84.0722 20.1667C85.2497 20.1667 86.1777 19.8289 86.1777 18.7366C86.2629 15.9587 76.1584 18.3989 76.1584 11.833C76.1584 7.20215 79.7365 6.14941 83.3998 6.14941C87.1057 6.14941 92.1564 6.86442 91.989 11.8756H86.3907C86.3907 11.4131 86.1807 11.0754 85.9282 10.6981C85.5478 10.2356 85.0854 10.0257 84.203 9.98308C83.0651 9.89789 82.0124 10.1109 82.0124 10.9506C82.0975 13.5186 92.4545 11.7934 92.4545 17.8543C92.4545 22.0652 89.5063 24.0003 83.7405 24.0003C80.1199 23.9151 75.5742 22.1048 75.5742 17.5591L81.5894 17.5166Z" fill="#001EAA"/>
<path d="M149.838 13.3056C149.838 12.9253 149.838 12.3806 149.29 11.7052C149.038 11.3675 148.447 10.6525 147.523 10.6525C144.997 10.6525 144.364 13.0957 144.364 15.0733C144.364 17.3888 145.417 19.2843 147.395 19.2843C149.12 19.2843 149.963 17.6839 149.963 16.3786H155.774C155.902 19.7894 153.544 23.9151 147.142 23.9151C141.921 23.9151 138.258 20.2944 138.258 15.0307C138.258 8.63217 143.016 6.18896 147.1 6.18896C152.658 6.18896 155.814 9.55712 155.731 13.3056H149.838Z" fill="#001EAA"/>
<path d="M31.7867 23.4525L31.1143 22.0621C29.8516 23.1148 28.5463 23.7051 26.4408 23.7051C24.378 23.6199 20.377 23.3673 20.377 18.9464C20.377 11.7051 31.1964 14.988 31.1964 11.4099C31.1964 10.2324 29.8912 10.272 29.1335 10.272C27.8283 10.272 26.9429 10.5245 26.7755 12.5022H21.2198C21.2198 9.09147 22.2725 6.18579 29.5139 6.18579C36.5879 6.18579 37.3029 9.89167 37.3029 13.5124V21.0489C37.3029 22.059 37.3881 22.4789 38.0179 23.2395V23.3673L31.7867 23.4525ZM31.239 15.8734C29.0088 16.9262 26.1457 16.8836 26.1031 18.5266C26.1031 19.5793 26.6934 20.127 27.9987 20.127C30.1863 20.0844 31.4064 17.8511 31.239 15.8734ZM68.9611 23.4525L68.2887 22.0621C67.026 23.1148 65.6356 23.7051 63.6153 23.7051C61.5098 23.6199 57.4692 23.3673 57.4692 18.9464C57.4692 11.7051 68.2887 14.988 68.3313 11.4099C68.3313 10.2324 66.9408 10.272 66.2684 10.272C64.878 10.272 64.0778 10.5245 63.9104 12.5022H58.3516C58.3516 9.09147 59.3191 6.18579 66.6457 6.18579C73.6346 6.18579 74.3496 9.89167 74.3496 13.5124V21.0489C74.3496 22.059 74.4348 22.4789 75.0646 23.2395V23.3673L68.9611 23.4525ZM68.4561 15.8734C66.2258 16.9262 63.3202 16.8836 63.3202 18.5266C63.3202 19.5793 63.8678 20.127 65.2157 20.127C67.3212 20.0844 68.5839 17.8511 68.4561 15.8734Z" fill="#001EAA"/>
<path d="M137.166 23.4526V6.90694H131.02V23.4526H137.166ZM131.02 4.75886H137.166V0.000244141H131.02V4.75886Z" fill="#001EAA"/>
<path d="M102.305 6.31665C107.778 6.31665 111.146 10.1473 111.146 15.1584C111.146 20.2517 107.778 24.0002 102.305 24.0002C96.831 24.0002 93.4203 20.2517 93.4203 15.1584C93.3807 10.1047 96.8341 6.31665 102.305 6.31665ZM99.402 15.1158C99.402 17.1787 100.074 19.6615 102.308 19.7467C104.538 19.7467 105.128 17.1787 105.128 15.1158C105.128 13.1381 104.538 10.5702 102.308 10.5702C100.032 10.5702 99.4446 13.1381 99.402 15.1158Z" fill="#001EAA"/>
</svg>
