<svg width="30" height="30" viewBox="0 0 30 30" fill="none" xmlns="http://www.w3.org/2000/svg">
          <g clip-path="url(#clip0_4083_1162)">
            <path d="M8.7789 10.2486H4.08594V25.2499H8.7789V10.2486Z" fill="#78909C"></path>
            <path d="M25.6882 17.2069V25.25H20.9953V17.7512C20.9953 15.7793 20.7585 14.182 18.4615 14.182C16.1645 14.182 15.9312 15.7828 15.9312 17.7512V25.25H11.2383V10.2488H15.9312V12.3938C16.638 10.8354 17.9738 9.84946 20.444 9.84946C20.6348 9.84946 20.8186 9.85652 20.9953 9.86713C25.2324 10.118 25.6882 13.3056 25.6882 17.2069Z" fill="#78909C"></path>
            <path d="M9.125 5.43573C9.125 3.95151 7.91995 2.75 6.43573 2.75C4.95151 2.75 3.75 3.95151 3.75 5.43573C3.75 6.91995 4.95151 8.12146 6.43573 8.12146C7.91995 8.12146 9.12146 6.91995 9.12146 5.43573H9.125Z" fill="#78909C"></path>
          </g>
          <defs>
            <clipPath id="clip0_4083_1162">
              <rect width="30" height="30" fill="white"></rect>
            </clipPath>
          </defs>
        </svg>