<?xml version="1.0" standalone="no"?>
<!DOCTYPE svg PUBLIC "-//W3C//DTD SVG 20010904//EN"
 "http://www.w3.org/TR/2001/REC-SVG-20010904/DTD/svg10.dtd">
<svg version="1.0" xmlns="http://www.w3.org/2000/svg"
 width="740.000000pt" height="457.000000pt" viewBox="0 0 740.000000 457.000000"
 preserveAspectRatio="xMidYMid meet">

<g transform="translate(0.000000,457.000000) scale(0.100000,-0.100000)"
fill="#000000" stroke="none">
<path d="M745 4263 c-160 -34 -287 -105 -395 -220 -167 -179 -252 -483 -221
-791 34 -333 165 -569 389 -702 221 -130 528 -142 767 -30 212 99 352 277 422
536 25 93 27 113 27 314 0 203 -1 221 -27 314 -105 386 -383 598 -782 595 -60
0 -141 -7 -180 -16z m308 -370 c103 -32 196 -154 233 -309 24 -95 24 -333 1
-428 -38 -151 -115 -264 -215 -313 -48 -23 -70 -28 -137 -28 -67 0 -89 5 -136
28 -102 50 -171 146 -211 295 -16 61 -21 108 -21 227 -1 218 34 343 124 440
97 105 216 134 362 88z"/>
<path d="M6275 4263 c-160 -34 -287 -105 -395 -220 -167 -179 -252 -483 -221
-791 34 -333 165 -569 389 -702 221 -130 528 -142 767 -30 212 99 352 277 422
536 25 93 27 113 27 314 0 203 -1 221 -27 314 -105 386 -383 598 -782 595 -60
0 -141 -7 -180 -16z m308 -370 c103 -32 196 -154 233 -309 24 -95 24 -333 1
-428 -38 -151 -115 -264 -215 -313 -48 -23 -70 -28 -137 -28 -67 0 -89 5 -136
28 -102 50 -171 146 -211 295 -16 61 -21 108 -21 227 -1 218 34 343 124 440
97 105 216 134 362 88z"/>
<path d="M1860 4070 l0 -180 235 0 235 0 0 -705 0 -705 215 0 215 0 0 705 0
705 240 0 240 0 0 180 0 180 -690 0 -690 0 0 -180z"/>
<path d="M3350 4245 c0 -7 309 -1716 315 -1742 l5 -23 264 0 263 0 73 358 c40
196 88 443 106 547 19 105 37 210 42 235 7 42 9 36 31 -100 12 -80 64 -345
115 -590 l92 -445 270 -3 269 -2 149 857 c81 472 150 870 153 886 l6 27 -204
-2 -203 -3 -57 -394 c-32 -217 -72 -518 -90 -670 -18 -152 -35 -279 -39 -284
-3 -4 -28 111 -54 255 -37 206 -206 992 -232 1081 -5 16 -21 17 -186 15 l-181
-3 -83 -370 c-80 -355 -194 -924 -194 -967 0 -12 -3 -18 -7 -14 -5 4 -24 134
-44 289 -20 155 -60 459 -90 675 l-54 392 -217 0 c-120 0 -218 -2 -218 -5z"/>
<path d="M2295 2025 c-82 -29 -135 -127 -135 -250 0 -115 40 -199 110 -235 48
-25 173 -27 225 -6 l35 15 0 115 0 116 -75 0 c-68 0 -75 -2 -75 -20 0 -18 7
-20 55 -20 l55 0 0 -85 0 -84 -42 -12 c-51 -13 -120 -6 -162 19 -51 29 -81
102 -81 197 0 96 29 166 84 202 61 41 161 20 189 -39 8 -17 21 -28 34 -28 17
0 19 4 14 28 -13 53 -93 103 -166 102 -14 -1 -43 -7 -65 -15z"/>
<path d="M150 1780 l0 -250 140 0 c118 0 140 2 140 15 0 13 -20 15 -120 15
l-120 0 0 235 c0 228 -1 235 -20 235 -19 0 -20 -7 -20 -250z"/>
<path d="M600 1780 c0 -243 1 -250 20 -250 19 0 20 7 20 250 0 243 -1 250 -20
250 -19 0 -20 -7 -20 -250z"/>
<path d="M800 2023 c0 -5 38 -117 84 -249 81 -234 84 -239 112 -242 l29 -3 83
243 c45 134 82 247 82 251 0 5 -10 7 -22 5 -19 -3 -31 -33 -96 -226 -41 -123
-76 -221 -78 -219 -3 2 -38 103 -78 223 -63 190 -76 219 -94 222 -12 2 -22 -1
-22 -5z"/>
<path d="M1360 1780 c0 -243 1 -250 20 -250 19 0 20 7 20 250 0 243 -1 250
-20 250 -19 0 -20 -7 -20 -250z"/>
<path d="M1620 1781 c0 -244 1 -251 20 -251 19 0 20 7 20 223 l1 222 22 -38
c206 -359 234 -402 266 -405 l31 -3 0 250 c0 244 -1 251 -20 251 -19 0 -20 -8
-22 -227 l-3 -228 -37 70 c-20 39 -79 140 -130 225 -80 134 -97 155 -120 158
l-28 3 0 -250z"/>
<path d="M3007 2023 c-4 -3 -7 -116 -7 -250 0 -235 1 -243 20 -243 18 0 20 8
22 118 l3 117 113 3 c104 2 112 4 112 22 0 19 -7 20 -115 20 l-115 0 0 90 0
90 115 0 c108 0 115 1 115 20 0 19 -7 20 -128 20 -71 0 -132 -3 -135 -7z"/>
<path d="M3452 1833 c3 -178 5 -202 24 -233 33 -56 77 -80 148 -80 79 0 123
23 153 80 22 41 23 55 23 237 0 186 -1 193 -20 193 -19 0 -20 -7 -20 -180 0
-195 -6 -225 -53 -268 -55 -51 -151 -32 -192 38 -18 31 -20 56 -23 223 -4 179
-5 187 -24 187 -19 0 -20 -6 -16 -197z"/>
<path d="M4020 1781 c0 -244 1 -251 20 -251 19 0 20 7 20 120 l0 120 69 0
c123 0 143 -20 156 -162 6 -73 8 -78 30 -78 17 0 22 5 19 18 -2 9 -8 54 -13
100 -9 86 -25 116 -66 132 -18 6 -16 9 14 24 55 29 75 116 38 167 -31 41 -67
53 -178 57 l-109 5 0 -252z m209 198 c17 -6 36 -19 41 -29 15 -27 12 -83 -5
-107 -17 -24 -84 -43 -154 -43 l-51 0 0 95 0 95 69 0 c37 0 82 -5 100 -11z"/>
<path d="M4540 1781 c0 -244 1 -251 20 -251 19 0 20 7 20 223 l1 222 22 -38
c206 -359 234 -402 266 -405 l31 -3 0 250 c0 244 -1 251 -20 251 -19 0 -20 -8
-22 -227 l-3 -228 -37 70 c-20 39 -79 140 -130 225 -80 134 -97 155 -120 158
l-28 3 0 -250z"/>
<path d="M5100 1780 c0 -243 1 -250 20 -250 19 0 20 7 20 250 0 243 -1 250
-20 250 -19 0 -20 -7 -20 -250z"/>
<path d="M5310 2010 c0 -18 7 -20 80 -20 l80 0 0 -230 c0 -198 2 -230 15 -230
13 0 15 32 15 230 l0 230 80 0 c73 0 80 2 80 20 0 19 -7 20 -175 20 -168 0
-175 -1 -175 -20z"/>
<path d="M5812 1833 c3 -178 5 -202 24 -233 33 -56 77 -80 148 -80 79 0 123
23 153 80 22 41 23 55 23 237 0 186 -1 193 -20 193 -19 0 -20 -7 -20 -180 0
-195 -6 -225 -53 -268 -55 -51 -151 -32 -192 38 -18 31 -20 56 -23 223 -4 179
-5 187 -24 187 -19 0 -20 -6 -16 -197z"/>
<path d="M6380 1781 c0 -244 1 -251 20 -251 19 0 20 7 20 120 l0 120 69 0
c123 0 143 -20 156 -162 6 -73 8 -78 30 -78 17 0 22 5 19 18 -2 9 -8 54 -13
100 -9 86 -25 116 -66 132 -18 6 -16 9 14 24 55 29 75 116 38 167 -31 41 -67
53 -178 57 l-109 5 0 -252z m209 198 c17 -6 36 -19 41 -29 15 -27 12 -83 -5
-107 -17 -24 -84 -43 -154 -43 l-51 0 0 95 0 95 69 0 c37 0 82 -5 100 -11z"/>
<path d="M6900 1780 l0 -250 145 0 c122 0 145 2 145 15 0 13 -21 15 -125 15
l-125 0 0 105 0 105 120 0 c100 0 120 3 120 15 0 13 -20 15 -120 15 l-120 0 0
95 0 95 120 0 c113 0 120 1 120 20 0 19 -7 20 -140 20 l-140 0 0 -250z"/>
</g>
</svg>
